<svg width="22" height="25" viewBox="0 0 22 25" fill="none" xmlns="http://www.w3.org/2000/svg">
<path d="M11 25.0001C11.7956 25.0001 12.5587 24.6708 13.1213 24.0848C13.6839 23.4987 14 22.7039 14 21.8751H8C8 22.7039 8.31607 23.4987 8.87868 24.0848C9.44129 24.6708 10.2044 25.0001 11 25.0001ZM12.4925 1.71724C12.5134 1.49998 12.4904 1.28056 12.4249 1.07314C12.3595 0.865712 12.253 0.674883 12.1124 0.512958C11.9717 0.351034 11.8001 0.221609 11.6085 0.133031C11.4169 0.0444526 11.2096 -0.00131226 11 -0.00131226C10.7904 -0.00131226 10.5831 0.0444526 10.3915 0.133031C10.1999 0.221609 10.0283 0.351034 9.88763 0.512958C9.74701 0.674883 9.64052 0.865712 9.57505 1.07314C9.50958 1.28056 9.48656 1.49998 9.5075 1.71724C7.81208 2.07646 6.28793 3.03499 5.19315 4.43053C4.09836 5.82606 3.50022 7.57283 3.5 9.37506C3.5 11.0907 2.75 18.7501 0.5 20.3126H21.5C19.25 18.7501 18.5 11.0907 18.5 9.37506C18.5 5.5938 15.92 2.43755 12.4925 1.71724Z" fill="white"/>
</svg>
