
<svg width="32" height="32" viewBox="0 0 32 32" className={className} xmlns="http://www.w3.org/2000/svg">
<rect x="0.5" y="0.5" width="31" height="31" rx="15.5" stroke="currentColor" stroke-dasharray="2 2"/>
<path d="M24.781 9.469C24.8508 9.53867 24.9063 9.62143 24.9441 9.71255C24.9819 9.80367 25.0013 9.90135 25.0013 10C25.0013 10.0986 24.9819 10.1963 24.9441 10.2874C24.9063 10.3786 24.8508 10.4613 24.781 10.531L14.281 21.031C14.2113 21.1008 14.1286 21.1563 14.0375 21.1941C13.9463 21.2319 13.8487 21.2513 13.75 21.2513C13.6514 21.2513 13.5537 21.2319 13.4626 21.1941C13.3714 21.1563 13.2887 21.1008 13.219 21.031L7.969 15.781C7.82817 15.6402 7.74905 15.4492 7.74905 15.25C7.74905 15.0508 7.82817 14.8598 7.969 14.719C8.10983 14.5782 8.30084 14.4991 8.5 14.4991C8.69916 14.4991 8.89017 14.5782 9.031 14.719L13.75 19.4395L23.719 9.469C23.7887 9.39915 23.8714 9.34374 23.9626 9.30593C24.0537 9.26812 24.1514 9.24866 24.25 9.24866C24.3487 9.24866 24.4463 9.26812 24.5375 9.30593C24.6286 9.34374 24.7113 9.39915 24.781 9.469Z" fill="currentColor"/>
<script xmlns=""/></svg>

