<svg width="16" height="16" viewBox="0 0 16 16" fill="none" xmlns="http://www.w3.org/2000/svg">
<path d="M12.854 0.146027C12.7602 0.0522915 12.6331 -0.000366211 12.5005 -0.000366211C12.3679 -0.000366211 12.2408 0.0522915 12.147 0.146027L10.5 1.79303L14.207 5.50003L15.854 3.85403C15.9006 3.80758 15.9375 3.75241 15.9627 3.69166C15.9879 3.63092 16.0009 3.56579 16.0009 3.50003C16.0009 3.43426 15.9879 3.36914 15.9627 3.30839C15.9375 3.24765 15.9006 3.19247 15.854 3.14603L12.854 0.146027ZM13.5 6.20703L9.79299 2.50003L3.29299 9.00003H3.49999C3.6326 9.00003 3.75977 9.05271 3.85354 9.14647C3.94731 9.24024 3.99999 9.36742 3.99999 9.50003V10H4.49999C4.6326 10 4.75977 10.0527 4.85354 10.1465C4.94731 10.2402 4.99999 10.3674 4.99999 10.5V11H5.49999C5.6326 11 5.75977 11.0527 5.85354 11.1465C5.94731 11.2402 5.99999 11.3674 5.99999 11.5V12H6.49999C6.6326 12 6.75977 12.0527 6.85354 12.1465C6.94731 12.2402 6.99999 12.3674 6.99999 12.5V12.707L13.5 6.20703ZM6.03199 13.675C6.01095 13.6191 6.00011 13.5598 5.99999 13.5V13H5.49999C5.36738 13 5.2402 12.9474 5.14644 12.8536C5.05267 12.7598 4.99999 12.6326 4.99999 12.5V12H4.49999C4.36738 12 4.2402 11.9474 4.14644 11.8536C4.05267 11.7598 3.99999 11.6326 3.99999 11.5V11H3.49999C3.36738 11 3.2402 10.9473 3.14644 10.8536C3.05267 10.7598 2.99999 10.6326 2.99999 10.5V10H2.49999C2.44021 9.99993 2.38093 9.98909 2.32499 9.96803L2.14599 10.146C2.09834 10.194 2.06092 10.2512 2.03599 10.314L0.0359892 15.314C-0.000381488 15.4049 -0.00928499 15.5044 0.0103825 15.6003C0.0300499 15.6962 0.0774234 15.7842 0.14663 15.8534C0.215836 15.9226 0.303832 15.97 0.399709 15.9896C0.495585 16.0093 0.595125 16.0004 0.685989 15.964L5.68599 13.964C5.74885 13.9391 5.806 13.9017 5.85399 13.854L6.03199 13.676V13.675Z" fill="white"/>
</svg>
